<svg xmlns="http://www.w3.org/2000/svg" width="48" height="48"><g fill="none" fill-rule="evenodd"><path fill="#4A4A4A" d="M24 48C10.745 48 0 37.256 0 24S10.745 0 24 0s24 10.744 24 24-10.745 24-24 24z"/><path fill="#EA2027" d="M24 45C12.401 45 3 35.6 3 24S12.401 3 24 3s21 9.4 21 21-9.401 21-21 21z"/><path fill="#4A4A4A" d="M34.979 36.014c-1.719-3.868-6.13-6.466-10.979-6.466-4.848 0-9.26 2.598-10.979 6.466-.27.61-.818.986-1.428.986-.244 0-.488-.064-.706-.185a1.711 1.711 0 0 1-.803-1.021 1.95 1.95 0 0 1 .082-1.356C12.444 29.314 17.874 26 24 26c6.126 0 11.556 3.314 13.834 8.438.189.426.217.908.082 1.356a1.71 1.71 0 0 1-.803 1.021c-.219.121-.463.185-.706.185-.61 0-1.157-.376-1.428-.986z"/><rect width="10" height="5" x="9.437" y="14.629" fill="#4A4A4A" rx="2.5" transform="rotate(20 14.437 17.129)"/><rect width="10" height="5" x="29.437" y="14.629" fill="#4A4A4A" rx="2.5" transform="scale(-1 1) rotate(20 0 -178.174)"/></g></svg>