<svg width="24" height="24" viewBox="0 0 24 24" fill="none" xmlns="http://www.w3.org/2000/svg">
  <path fill-rule="evenodd" clip-rule="evenodd" d="M1 0C0.447693 0 0 0.447754 0 1V12C0 12.5522 0.447693 13 1 13H5C5.55231 13 6 13.4478 6 14V18L12 13H19C19.5523 13 20 12.5522 20 12V1C20 0.447754 19.5523 0 19 0H1Z" transform="translate(2 2)" fill="white"/>
  <path fill-rule="evenodd" clip-rule="evenodd" d="M0 3C0 1.34314 1.34314 0 3 0H21C22.6569 0 24 1.34314 24 3V14C24 15.6569 22.6569 17 21 17H13.9958L7.65869 22.5479C7.01215 23.1139 6 22.6548 6 21.7955V17H3C1.34314 17 0 15.6569 0 14V3ZM8 19.5823L13.2446 15H21C21.5522 15 22 14.5522 22 14V3C22 2.44775 21.5522 2 21 2H3C2.44769 2 2 2.44775 2 3V14C2 14.5522 2.44769 15 3 15H7C7.55231 15 8 15.4478 8 16V19.5823ZM11.2222 5H12.7778V7.72217H15.5V9.27771H12.7778V12H11.2222V9.27771H8.5V7.72217H11.2222V5Z" fill="black"/>
  <mask id="mask0" mask-type="alpha" maskUnits="userSpaceOnUse" x="0" y="0" width="24" height="23">
  <path fill-rule="evenodd" clip-rule="evenodd" d="M0 3C0 1.34314 1.34314 0 3 0H21C22.6569 0 24 1.34314 24 3V14C24 15.6569 22.6569 17 21 17H13.9958L7.65869 22.5479C7.01215 23.1139 6 22.6548 6 21.7955V17H3C1.34314 17 0 15.6569 0 14V3ZM8 19.5823L13.2446 15H21C21.5522 15 22 14.5522 22 14V3C22 2.44775 21.5522 2 21 2H3C2.44769 2 2 2.44775 2 3V14C2 14.5522 2.44769 15 3 15H7C7.55231 15 8 15.4478 8 16V19.5823ZM11.2222 5H12.7778V7.72217H15.5V9.27771H12.7778V12H11.2222V9.27771H8.5V7.72217H11.2222V5Z" fill="white"/>
  </mask>
  <g mask="url(#mask0)">
  <path fill-rule="evenodd" clip-rule="evenodd" d="M0 0H24V24H0V0Z" fill="#74BF60"/>
  </g>
</svg>
