<svg xmlns="http://www.w3.org/2000/svg" xmlns:xlink="http://www.w3.org/1999/xlink" width="24" height="23" viewBox="0 0 24 23">
  <defs>
    <path id="add-comment-a" d="M12.7777778,7.72222222 L15.5,7.72222222 L15.5,9.27777778 L12.7777778,9.27777778 L12.7777778,12 L11.2222222,12 L11.2222222,9.27777778 L8.5,9.27777778 L8.5,7.72222222 L11.2222222,7.72222222 L11.2222222,5 L12.7777778,5 L12.7777778,7.72222222 Z M13.9958428,17 L7.65869845,22.5478843 C7.47638131,22.7074947 7.24231185,22.7954772 7,22.7954772 C6.44771525,22.7954772 6,22.347762 6,21.7954772 L6,17 L3,17 C1.34314575,17 2.02906125e-16,15.6568542 0,14 L0,3 C-2.02906125e-16,1.34314575 1.34314575,1.63662682e-15 3,1.33226763e-15 L21,0 C22.6568542,-3.04359188e-16 24,1.34314575 24,3 L24,14 C24,15.6568542 22.6568542,17 21,17 L13.9958428,17 Z M13.2445406,15 L21,15 C21.5522847,15 22,14.5522847 22,14 L22,3 C22,2.44771525 21.5522847,2 21,2 L3,2 C2.44771525,2 2,2.44771525 2,3 L2,14 C2,14.5522847 2.44771525,15 3,15 L7,15 C7.55228475,15 8,15.4477153 8,16 L8,19.5823285 L13.2445406,15 Z"/>
  </defs>
  <g fill="none" fill-rule="evenodd">
    <path fill="#FFF" d="M14,15 L8,20 L8,16 C8,15.4477153 7.55228475,15 7,15 L3,15 C2.44771525,15 2,14.5522847 2,14 L2,3 C2,2.44771525 2.44771525,2 3,2 L21,2 C21.5522847,2 22,2.44771525 22,3 L22,14 C22,14.5522847 21.5522847,15 21,15 L14,15 Z"/>
    <mask id="add-comment-b" fill="#fff">
      <use xlink:href="#add-comment-a"/>
    </mask>
    <use fill="#000" xlink:href="#add-comment-a"/>
    <g fill="#4A4A4A" mask="url(#add-comment-b)">
      <rect width="24" height="24"/>
    </g>
  </g>
</svg>
